<svg width="309" height="116" viewBox="0 0 309 116" fill="none" xmlns="http://www.w3.org/2000/svg">
<circle cx="58" cy="58" r="58" fill="url(#paint0_radial_106_43)"/>
<rect x="51.1519" y="26.4361" width="4.31915" height="48.5684" rx="2.15957" transform="rotate(43.0597 51.1519 26.4361)" stroke="#00A3FF" stroke-width="4.31915"/>
<rect x="69.2002" y="26.4874" width="4.31915" height="69.6682" rx="2.15957" transform="rotate(43.0597 69.2002 26.4874)" stroke="#00A3FF" stroke-width="4.31915"/>
<rect x="70.4729" y="44.4909" width="4.31915" height="37.2857" rx="2.15957" transform="rotate(43.0597 70.4729 44.4909)" stroke="#00A3FF" stroke-width="4.31915"/>
<rect x="92.8922" y="39.8645" width="4.31915" height="64.1037" rx="2.15957" transform="rotate(43.0597 92.8922 39.8645)" stroke="#00A3FF" stroke-width="4.31915"/>
<rect x="89.7938" y="62.5456" width="4.31915" height="37.2857" rx="2.15957" transform="rotate(43.0597 89.7938 62.5456)" stroke="#00A3FF" stroke-width="4.31915"/>
<path d="M188.744 51.864C188.744 53.656 188.312 55.336 187.448 56.904C186.616 58.472 185.288 59.736 183.464 60.696C181.672 61.656 179.4 62.136 176.648 62.136H171.032V75H164.312V41.496H176.648C179.24 41.496 181.448 41.944 183.272 42.84C185.096 43.736 186.456 44.968 187.352 46.536C188.28 48.104 188.744 49.88 188.744 51.864ZM176.36 56.712C178.216 56.712 179.592 56.296 180.488 55.464C181.384 54.6 181.832 53.4 181.832 51.864C181.832 48.6 180.008 46.968 176.36 46.968H171.032V56.712H176.36ZM205.227 41.496C208.747 41.496 211.835 42.184 214.491 43.56C217.179 44.936 219.243 46.904 220.683 49.464C222.155 51.992 222.891 54.936 222.891 58.296C222.891 61.656 222.155 64.6 220.683 67.128C219.243 69.624 217.179 71.56 214.491 72.936C211.835 74.312 208.747 75 205.227 75H193.515V41.496H205.227ZM204.987 69.288C208.507 69.288 211.227 68.328 213.147 66.408C215.067 64.488 216.027 61.784 216.027 58.296C216.027 54.808 215.067 52.088 213.147 50.136C211.227 48.152 208.507 47.16 204.987 47.16H200.235V69.288H204.987ZM226.193 61.608C226.193 58.92 226.721 56.536 227.777 54.456C228.865 52.376 230.321 50.776 232.145 49.656C234.001 48.536 236.065 47.976 238.337 47.976C240.321 47.976 242.049 48.376 243.521 49.176C245.025 49.976 246.225 50.984 247.121 52.2V48.408H253.889V75H247.121V71.112C246.257 72.36 245.057 73.4 243.521 74.232C242.017 75.032 240.273 75.432 238.289 75.432C236.049 75.432 234.001 74.856 232.145 73.704C230.321 72.552 228.865 70.936 227.777 68.856C226.721 66.744 226.193 64.328 226.193 61.608ZM247.121 61.704C247.121 60.072 246.801 58.68 246.161 57.528C245.521 56.344 244.657 55.448 243.569 54.84C242.481 54.2 241.313 53.88 240.065 53.88C238.817 53.88 237.665 54.184 236.609 54.792C235.553 55.4 234.689 56.296 234.017 57.48C233.377 58.632 233.057 60.008 233.057 61.608C233.057 63.208 233.377 64.616 234.017 65.832C234.689 67.016 235.553 67.928 236.609 68.568C237.697 69.208 238.849 69.528 240.065 69.528C241.313 69.528 242.481 69.224 243.569 68.616C244.657 67.976 245.521 67.08 246.161 65.928C246.801 64.744 247.121 63.336 247.121 61.704ZM268.277 53.928V66.792C268.277 67.688 268.485 68.344 268.901 68.76C269.349 69.144 270.085 69.336 271.109 69.336H274.229V75H270.005C264.341 75 261.509 72.248 261.509 66.744V53.928H258.341V48.408H261.509V41.832H268.277V48.408H274.229V53.928H268.277ZM277.334 61.608C277.334 58.92 277.862 56.536 278.918 54.456C280.006 52.376 281.462 50.776 283.286 49.656C285.142 48.536 287.206 47.976 289.478 47.976C291.462 47.976 293.19 48.376 294.662 49.176C296.166 49.976 297.366 50.984 298.262 52.2V48.408H305.03V75H298.262V71.112C297.398 72.36 296.198 73.4 294.662 74.232C293.158 75.032 291.414 75.432 289.43 75.432C287.19 75.432 285.142 74.856 283.286 73.704C281.462 72.552 280.006 70.936 278.918 68.856C277.862 66.744 277.334 64.328 277.334 61.608ZM298.262 61.704C298.262 60.072 297.942 58.68 297.302 57.528C296.662 56.344 295.798 55.448 294.71 54.84C293.622 54.2 292.454 53.88 291.206 53.88C289.958 53.88 288.806 54.184 287.75 54.792C286.694 55.4 285.83 56.296 285.158 57.48C284.518 58.632 284.198 60.008 284.198 61.608C284.198 63.208 284.518 64.616 285.158 65.832C285.83 67.016 286.694 67.928 287.75 68.568C288.838 69.208 289.99 69.528 291.206 69.528C292.454 69.528 293.622 69.224 294.71 68.616C295.798 67.976 296.662 67.08 297.302 65.928C297.942 64.744 298.262 63.336 298.262 61.704Z" fill="white"/>
<defs>
<radialGradient id="paint0_radial_106_43" cx="0" cy="0" r="1" gradientUnits="userSpaceOnUse" gradientTransform="translate(58 58) rotate(90) scale(58)">
<stop stop-color="#091263"/>
<stop offset="0.75" stop-color="#0515A4"/>
<stop offset="0.963542" stop-color="#00A3FF"/>
</radialGradient>
</defs>
</svg>
